<mxfile host="app.diagrams.net" modified="2023-04-29T13:50:46.840Z" agent="Mozilla/5.0 (Windows NT 10.0; Win64; x64) AppleWebKit/537.36 (KHTML, like Gecko) Chrome/112.0.0.0 Safari/537.36 Edg/112.0.1722.64" version="21.2.3" etag="NIk5Qhh_Y7Pd3mWC3gd0" type="github">
  <diagram name="Seite-1" id="tkjL7Bl7fKcFwWtX96e2">
    <mxGraphModel>
      <root>
        <mxCell id="0" />
        <mxCell id="1" parent="0" />
      </root>
    </mxGraphModel>
  </diagram>
</mxfile>
